<svg xmlns="http://www.w3.org/2000/svg" width="30.267" height="42" viewBox="0 0 30.267 42">
    <defs>
        <filter id="29wivb1w2a" width="30.267" height="42" x="0" y="0" filterUnits="userSpaceOnUse">
            <feOffset/>
            <feGaussianBlur result="blur" stdDeviation="2"/>
            <feFlood flood-opacity=".161"/>
            <feComposite in2="blur" operator="in"/>
            <feComposite in="SourceGraphic"/>
        </filter>
    </defs>
    <g filter="url(#29wivb1w2a)">
        <path fill="#7e0cf5" d="M5.512 30H1.555A1.557 1.557 0 0 1 0 28.444V9.533a9.091 9.091 0 0 1 2.848-7.076A8.909 8.909 0 0 1 9.122 0a9.037 9.037 0 0 1 6.385 2.462 9.481 9.481 0 0 1 2.76 7.087v18.9A1.557 1.557 0 0 1 16.712 30H12.73a4.171 4.171 0 0 0-3.607-1.8A4.159 4.159 0 0 0 5.512 30zM9.123 4.738a4.4 4.4 0 0 0-3.35 1.32A5.709 5.709 0 0 0 4.6 9.831v11.981a4.538 4.538 0 1 0 9.076 0V9.831a5.774 5.774 0 0 0-1.205-3.773 4.411 4.411 0 0 0-3.348-1.32z" transform="translate(6 6)"/>
    </g>
</svg>
